HIERARCHY
ROOT Hips
{
	OFFSET -0.001795 -0.223333 0.028219
	CHANNELS 6 Xposition Yposition Zposition Zrotation Yrotation Xrotation 
	JOINT LeftUpLeg
	{
		OFFSET 0.069520 -0.091406 -0.006815
		CHANNELS 3 Zrotation Yrotation Xrotation
		JOINT LeftLeg
		{
			OFFSET 0.034277 -0.375199 -0.004496
			CHANNELS 3 Zrotation Yrotation Xrotation
			JOINT LeftFoot
			{
				OFFSET -0.013596 -0.397961 -0.043693
				CHANNELS 3 Zrotation Yrotation Xrotation
				JOINT LeftToe
				{
					OFFSET 0.026358 -0.055791 0.119288
					CHANNELS 3 Zrotation Yrotation Xrotation
					End Site
					{
						OFFSET 0.000000 0.000000 0.000000
					}
				}
			}
		}
	}
	JOINT RightUpLeg
	{
		OFFSET -0.067670 -0.090522 -0.004320
		CHANNELS 3 Zrotation Yrotation Xrotation
		JOINT RightLeg
		{
			OFFSET -0.038290 -0.382569 -0.008850
			CHANNELS 3 Zrotation Yrotation Xrotation
			JOINT RightFoot
			{
				OFFSET 0.015774 -0.398415 -0.042312
				CHANNELS 3 Zrotation Yrotation Xrotation
				JOINT RightToe
				{
					OFFSET -0.025372 -0.048144 0.123348
					CHANNELS 3 Zrotation Yrotation Xrotation
					End Site
					{
						OFFSET 0.000000 0.000000 0.000000
					}
				}
			}
		}
	}
	JOINT Spine
	{
		OFFSET -0.002533 0.108963 -0.026696
		CHANNELS 3 Zrotation Yrotation Xrotation
		JOINT Spine1
		{
			OFFSET 0.005487 0.135180 0.001092
			CHANNELS 3 Zrotation Yrotation Xrotation
			JOINT Spine2
			{
				OFFSET 0.001457 0.052922 0.025425
				CHANNELS 3 Zrotation Yrotation Xrotation
				JOINT Neck
				{
					OFFSET -0.002778 0.213870 -0.042857
					CHANNELS 3 Zrotation Yrotation Xrotation
					JOINT Head
					{
						OFFSET 0.005152 0.064970 0.051349
						CHANNELS 3 Zrotation Yrotation Xrotation
						End Site
						{
							OFFSET 0.000000 0.000000 0.000000
						}
					}
				}
				JOINT LeftShoulder
				{
					OFFSET 0.078845 0.121749 -0.034090
					CHANNELS 3 Zrotation Yrotation Xrotation
					JOINT LeftArm
					{
						OFFSET 0.090977 0.030469 -0.008868
						CHANNELS 3 Zrotation Yrotation Xrotation
						JOINT LeftForeArm
						{
							OFFSET 0.259612 -0.012772 -0.027456
							CHANNELS 3 Zrotation Yrotation Xrotation
							JOINT LeftHand
							{
								OFFSET 0.249234 0.008986 -0.001171
								CHANNELS 3 Zrotation Yrotation Xrotation
								End Site
								{
									OFFSET 0.000000 0.000000 0.000000
								}
							}
						}
					}
				}
				JOINT RightShoulder
				{
					OFFSET -0.081759 0.118833 -0.038615
					CHANNELS 3 Zrotation Yrotation Xrotation
					JOINT RightArm
					{
						OFFSET -0.096012 0.032551 -0.009143
						CHANNELS 3 Zrotation Yrotation Xrotation
						JOINT RightForeArm
						{
							OFFSET -0.253742 -0.013329 -0.021401
							CHANNELS 3 Zrotation Yrotation Xrotation
							JOINT RightHand
							{
								OFFSET -0.255298 0.007772 -0.005559
								CHANNELS 3 Zrotation Yrotation Xrotation
								End Site
								{
									OFFSET 0.000000 0.000000 0.000000
								}
							}
						}
					}
				}
			}
		}
	}
}
MOTION
Frames: 13
Frame Time: 0.050000
0.044115 0.992085 -0.023542 1.785520 -7.031874 -0.017175 4.272964 -0.324950 -6.380940 -3.971328 0.719742 -19.619577 52.436000 26.058965 119.435644 0.000000 0.000000 0.000000 -2.250224 1.108644 -12.207195 4.572813 -0.262293 -13.829078 -69.419108 -25.983219 120.362057 0.000000 0.000000 0.000000 -3.141941 -0.003273 3.788715 2.770044 1.297817 -42.792441 -0.266322 2.636156 41.256617 -4.655148 4.212109 -78.459737 0.000000 0.000000 0.000000 -25.130833 -0.156666 0.073374 -54.722170 -19.294794 -1.980855 -8.446223 36.492253 -2.978600 0.000000 0.000000 0.000000 10.936039 5.290443 1.824808 57.168136 16.967153 -1.700627 39.076498 -43.312629 -16.430804 0.000000 0.000000 0.000000 
0.044661 0.991699 -0.026475 1.647098 -7.075780 -0.226076 4.295152 -0.316320 -6.295222 -3.759040 0.734222 -19.779818 52.496108 26.115838 119.276459 0.000000 0.000000 0.000000 -2.010201 1.130994 -12.273848 4.488363 -0.267292 -13.690559 -70.563714 -26.035724 120.549679 0.000000 0.000000 0.000000 -2.659621 -0.033600 4.179926 2.216300 1.326060 -42.698253 -0.005919 2.772934 41.344679 -5.591980 4.254037 -79.026116 0.000000 0.000000 0.000000 -25.182469 -1.295866 0.751878 -54.746952 -19.510371 -1.881333 -8.969900 35.086240 -3.062744 0.000000 0.000000 0.000000 11.349226 5.878722 2.111273 57.154510 17.609303 -1.387150 36.886307 -41.115012 -14.644949 0.000000 0.000000 0.000000 
0.045234 0.991843 -0.029225 1.679082 -7.128719 -0.370239 4.165895 -0.323864 -6.325354 -3.567426 0.742257 -19.695283 51.419381 26.123253 119.028286 0.000000 0.000000 0.000000 -1.919449 1.156717 -12.474282 4.543194 -0.271091 -13.327297 -71.533448 -26.621644 119.823758 0.000000 0.000000 0.000000 -2.321190 -0.052173 4.213755 1.720073 1.307840 -42.009364 -0.197840 2.876208 40.893727 -5.390225 4.240180 -78.863692 0.000000 0.000000 0.000000 -24.862168 -1.630061 0.941025 -55.131823 -19.369542 -1.871692 -8.021451 35.689322 -2.779462 0.000000 0.000000 0.000000 11.814215 6.690040 2.476803 57.118829 18.210869 -1.030280 35.719671 -40.282848 -13.884281 0.000000 0.000000 0.000000 
0.045663 0.992313 -0.032519 1.714940 -6.853262 -0.398791 3.965351 -0.340428 -6.343270 -3.476589 0.740568 -19.862681 52.105255 26.205503 118.636700 0.000000 0.000000 0.000000 -1.944087 1.186611 -12.828755 4.457510 -0.284778 -13.179756 -71.751073 -26.307308 120.573804 0.000000 0.000000 0.000000 -2.247270 -0.065788 4.833211 1.270854 1.372924 -42.618690 0.002032 2.623082 41.309777 -6.404825 4.300232 -79.724730 0.000000 0.000000 0.000000 -24.489883 -2.480005 1.490682 -55.230210 -19.214065 -1.966095 -8.434590 36.798282 -2.940402 0.000000 0.000000 0.000000 11.774209 6.763106 2.521755 57.481835 19.203305 -0.580477 35.109403 -40.525651 -13.661943 0.000000 0.000000 0.000000 
0.046046 0.992508 -0.036800 1.635529 -6.702949 -0.247514 3.876047 -0.363143 -6.606803 -3.332108 0.749268 -20.131258 52.365889 26.159101 118.695403 0.000000 0.000000 0.000000 -1.871485 1.257301 -13.499616 4.319508 -0.299642 -12.819944 -70.522611 -25.899873 121.045814 0.000000 0.000000 0.000000 -2.037796 -0.083296 5.255523 0.706343 1.434927 -43.064354 0.297068 2.220672 41.533223 -6.982544 4.356672 -80.514305 0.000000 0.000000 0.000000 -23.869680 -3.171806 2.001239 -55.256882 -19.328213 -1.926863 -8.381996 40.892355 -3.047324 0.000000 0.000000 0.000000 11.271045 7.126945 2.654700 57.873846 20.611266 0.106365 36.437514 -42.162878 -14.750359 0.000000 0.000000 0.000000 
0.046379 0.992338 -0.041567 1.496304 -6.674227 -0.169421 3.865043 -0.382449 -6.941853 -3.363326 0.742733 -20.039754 54.182616 26.272915 118.752504 0.000000 0.000000 0.000000 -1.628436 1.304196 -13.766069 4.262345 -0.303133 -12.795651 -70.970201 -25.817237 121.349870 0.000000 0.000000 0.000000 -1.843712 -0.109680 6.170077 0.223905 1.520667 -43.850858 0.529269 1.369454 42.009539 -7.289646 4.462189 -81.421985 0.000000 0.000000 0.000000 -22.991361 -3.887517 2.658449 -55.575585 -18.598723 -2.301068 -7.413890 44.583385 -2.649448 0.000000 0.000000 0.000000 10.608975 7.167214 2.571814 57.986062 22.102109 0.742012 37.764256 -43.475488 -15.890957 0.000000 0.000000 0.000000 
0.046829 0.992314 -0.045621 1.514096 -7.443145 -0.099396 3.623258 -0.389285 -6.887870 -2.603174 0.813287 -20.123728 52.396615 26.387268 118.789684 0.000000 0.000000 0.000000 -1.427646 1.353941 -13.993688 4.259501 -0.280887 -12.868292 -70.185533 -25.682587 120.867461 0.000000 0.000000 0.000000 -1.712371 -0.122932 6.667419 0.144368 1.567777 -43.696194 0.802946 1.387386 41.610997 -7.433428 4.536519 -82.550799 0.000000 0.000000 0.000000 -23.020728 -4.091729 2.917380 -54.809430 -17.070570 -3.048278 -4.587982 51.679438 -1.400777 0.000000 0.000000 0.000000 10.340387 7.660379 2.714113 57.696749 23.872674 1.606624 40.647710 -45.376754 -18.032641 0.000000 0.000000 0.000000 
0.047365 0.991300 -0.048326 1.394518 -7.770610 -0.085606 3.705384 -0.378707 -6.857090 -2.527716 0.835458 -20.280802 54.108066 26.563963 118.996645 0.000000 0.000000 0.000000 -1.110338 1.341588 -13.599208 4.237715 -0.259415 -13.570433 -70.026192 -25.482454 120.927568 0.000000 0.000000 0.000000 -1.572594 -0.140296 7.189796 0.052470 1.643971 -44.412146 1.038949 1.050434 42.415234 -7.762094 4.612266 -83.589624 0.000000 0.000000 0.000000 -21.899043 -4.251498 3.121840 -54.081309 -15.486985 -3.847264 -4.637968 64.993213 -1.184747 0.000000 0.000000 0.000000 9.962018 7.715157 2.687443 56.793536 25.663183 2.247849 43.744853 -47.014648 -20.307099 0.000000 0.000000 0.000000 
0.047851 0.990788 -0.049738 1.409645 -9.034025 0.135303 3.618498 -0.366971 -6.712905 -1.632574 0.929110 -20.333838 53.195090 26.790276 119.446744 0.000000 0.000000 0.000000 -1.132572 1.386431 -13.901223 4.466433 -0.215651 -13.433491 -68.432722 -25.597820 119.515808 0.000000 0.000000 0.000000 -1.560218 -0.137204 7.441935 0.574028 1.705189 -44.395697 1.362076 1.634559 42.177404 -7.639860 4.646101 -84.571590 0.000000 0.000000 0.000000 -21.101263 -3.569578 2.757990 -52.758200 -12.727452 -5.035294 5.982700 85.478165 8.618573 0.000000 0.000000 0.000000 9.142073 7.869403 2.718487 55.952086 26.653414 2.620078 46.588743 -48.163598 -22.402017 0.000000 0.000000 0.000000 
0.048289 0.989713 -0.050699 1.313408 -9.470166 -0.045889 3.683926 -0.350427 -6.615483 -1.685763 0.929647 -20.112433 55.033061 26.984349 119.696490 0.000000 0.000000 0.000000 -0.669700 1.357887 -13.298008 4.230737 -0.204668 -13.699712 -68.002634 -25.589658 119.044868 0.000000 0.000000 0.000000 -1.592919 -0.138709 7.880092 1.078991 1.705581 -44.313964 1.113833 1.692496 42.605134 -6.734835 4.684713 -85.494572 0.000000 0.000000 0.000000 -19.477347 -2.981633 2.425251 -51.938810 -9.793233 -6.245381 170.581315 73.593589 171.389543 0.000000 0.000000 0.000000 9.173065 7.367007 2.481211 54.825696 28.446318 3.219269 48.728874 -49.563788 -24.325552 0.000000 0.000000 0.000000 
0.048744 0.988872 -0.051850 1.116503 -10.155735 0.048292 3.975565 -0.307531 -6.304319 -1.320742 0.970979 -20.132162 55.003041 27.088693 120.104042 0.000000 0.000000 0.000000 -0.569134 1.403523 -13.571991 4.350520 -0.183842 -13.501804 -67.226264 -25.209007 119.023939 0.000000 0.000000 0.000000 -1.577184 -0.140124 8.292981 1.639354 1.755340 -44.619928 1.361160 2.082598 43.023105 -6.570034 4.681604 -86.389080 0.000000 0.000000 0.000000 -17.803958 -2.948477 2.350044 -51.061246 -5.282951 -7.999042 168.949067 59.416943 164.162426 0.000000 0.000000 0.000000 8.756042 6.657339 2.191649 54.093303 29.217324 3.393457 49.034084 -49.421653 -24.452909 0.000000 0.000000 0.000000 
0.049463 0.987988 -0.053185 0.816679 -10.166144 0.069113 4.307146 -0.288314 -6.420588 -1.575548 0.976798 -20.450314 57.651411 26.981127 120.913788 0.000000 0.000000 0.000000 -0.556051 1.409600 -13.608722 4.666135 -0.161306 -13.843766 -67.815700 -25.092765 119.434015 0.000000 0.000000 0.000000 -1.484363 -0.153306 8.665256 2.107878 1.775340 -45.066537 1.237414 1.692775 43.775684 -5.800444 4.764427 -87.012851 0.000000 0.000000 0.000000 -15.922137 -2.408118 2.051716 -50.758255 -0.799132 -9.696964 166.179962 51.147148 154.201673 0.000000 0.000000 0.000000 8.403310 6.495048 2.098663 53.027463 30.945812 3.896272 50.516172 -50.204249 -25.823272 0.000000 0.000000 0.000000 
0.050499 0.987081 -0.054327 0.712200 -10.329937 0.105277 4.301364 -0.280408 -6.272481 -1.568072 0.985561 -20.486671 57.417651 27.056644 120.810133 0.000000 0.000000 0.000000 -0.538591 1.412318 -13.607486 4.658133 -0.159788 -13.730948 -67.776690 -25.052768 119.388156 0.000000 0.000000 0.000000 -1.102526 -0.185074 8.533476 2.303778 1.681728 -44.179137 1.371933 2.303035 43.846632 -5.600788 4.647864 -87.211644 0.000000 0.000000 0.000000 -14.147384 -2.114242 1.722051 -50.963600 4.107206 -11.582886 162.910906 47.890459 144.372779 0.000000 0.000000 0.000000 8.829614 6.250118 2.043687 51.832224 32.220542 4.304619 49.727565 -48.567874 -24.470691 0.000000 0.000000 0.000000 
